<svg width="436" height="404" viewBox="0 0 436 404" fill="none" xmlns="http://www.w3.org/2000/svg">
<path d="M258 525C438.597 525 585 389.342 585 222C585 54.6577 438.597 -81 258 -81C77.4029 -81 -69 54.6577 -69 222C-69 389.342 77.4029 525 258 525Z" fill="white" fill-opacity="0.22"/>
<path d="M258 474.5C408.498 474.5 530.5 361.452 530.5 222C530.5 82.5481 408.498 -30.5 258 -30.5C107.502 -30.5 -14.5 82.5481 -14.5 222C-14.5 361.452 107.502 474.5 258 474.5Z" fill="#EFF3FF" fill-opacity="0.22"/>
<path d="M258 373.5C348.299 373.5 421.5 305.671 421.5 222C421.5 138.329 348.299 70.5 258 70.5C167.701 70.5 94.5 138.329 94.5 222C94.5 305.671 167.701 373.5 258 373.5Z" fill="#FEA555" fill-opacity="0.22"/>
<path d="M258 323C318.199 323 367 277.781 367 222C367 166.219 318.199 121 258 121C197.801 121 149 166.219 149 222C149 277.781 197.801 323 258 323Z" fill="#FF8C00" fill-opacity="0.22"/>
<path d="M258 272.5C288.1 272.5 312.5 249.89 312.5 222C312.5 194.11 288.1 171.5 258 171.5C227.9 171.5 203.5 194.11 203.5 222C203.5 249.89 227.9 272.5 258 272.5Z" fill="#FE7801" fill-opacity="0.22"/>
</svg>
